<svg width="276" height="64" viewBox="0 0 276 64" fill="none" xmlns="http://www.w3.org/2000/svg">
<g clip-path="url(#clip0_20_734)">
<rect width="276" height="64" fill="#151515"/>
<path d="M0 61H163V64H0V61Z" fill="white"/>
<path fill-rule="evenodd" clip-rule="evenodd" d="M206.321 2.46613C205.063 3.16121 204.683 3.96285 204.683 5.92021V7.47812L193.058 7.52414C180.403 7.57435 180.914 7.53705 179.926 8.48336C177.961 10.3668 179.144 13.1098 182.053 13.4099C182.989 13.5065 183.011 13.5213 183.194 14.1722C183.297 14.5372 183.471 15.0902 183.58 15.401C183.689 15.7118 183.973 16.5837 184.21 17.3385C184.447 18.0934 184.857 19.3829 185.121 20.2044C185.385 21.0259 185.815 22.3699 186.076 23.1914C186.338 24.0129 186.755 25.3207 187.003 26.0977C188.807 31.7443 189.114 32.7302 189.118 32.8789C189.12 32.9454 186.279 33 182.804 33C175.723 33 175.585 33.0192 174.743 34.1286C174.495 34.4552 174.131 35.1887 173.935 35.7584C173.738 36.3281 173.357 37.4118 173.087 38.1667C172.313 40.3291 171.705 42.0221 171.233 43.3333C170.678 44.8749 170.004 46.7527 169.38 48.5C169.111 49.2548 168.694 50.4173 168.454 51.0833C168.214 51.7493 167.809 52.8755 167.555 53.5859C167.3 54.2964 166.868 55.4952 166.595 56.25C166.322 57.0048 166.061 57.8848 166.014 58.2053C165.853 59.318 167.073 60.7479 168.465 61.0778C169.446 61.3103 181.875 61.3127 184.262 61.0808C186.849 60.8293 189.106 60.0953 191.471 58.7363L192.432 58.1843L193.4 59.077C194.745 60.3163 196.739 61.608 198.384 62.3057C199.149 62.6297 199.927 62.9663 200.114 63.0539C201.001 63.4685 203.79 63.8897 206.073 63.954C208.181 64.0132 208.73 63.9703 210.478 63.6094C217.684 62.1221 222.793 57.3256 224.166 50.7604C224.268 50.272 224.316 48.9642 224.272 47.8542C224.115 43.8282 222.435 40.4436 219.142 37.5176C216.701 35.3494 213.389 33.7681 210.179 33.2393C208.495 32.9619 204.69 32.9241 203.096 33.1689C201.639 33.3927 199.49 34.0637 198.061 34.741C197.199 35.1497 196.882 35.2343 196.819 35.0731C196.772 34.9541 196.599 34.4208 196.435 33.888C196.138 32.9269 195.628 31.3168 194.76 28.6003C194.186 26.8016 193.512 24.6891 192.907 22.7878C192.646 21.9663 192.229 20.6586 191.981 19.8815C191.733 19.1046 191.327 17.8331 191.08 17.056C190.833 16.2791 190.5 15.2436 190.341 14.7552C190.182 14.2668 190.051 13.7764 190.05 13.6654C190.048 13.5073 191.633 13.4635 197.364 13.4635H204.68L204.728 21.8888L204.776 30.314L206.999 30.3581C208.222 30.3823 209.597 30.4711 210.056 30.5552C211.323 30.7877 213.744 31.377 214.097 31.5385C214.269 31.6174 215.111 31.9835 215.969 32.3521C221.544 34.7483 225.844 39.7506 226.935 45.1094C227.291 46.8575 227.244 50.3645 226.84 52.1328C226.658 52.932 226.496 53.7312 226.48 53.9089C226.452 54.2261 226.581 54.2326 233.862 54.2767C237.938 54.3014 241.447 54.2846 241.661 54.2394C242.002 54.1673 242.065 53.9991 242.169 52.9028C242.485 49.5477 244.637 46.1773 247.756 44.1495C251.791 41.5273 256.886 40.8572 261.436 42.3505C263.577 43.053 264.81 43.7467 266.484 45.1901C268.912 47.2842 270.2 49.5288 270.652 52.4557C270.775 53.2549 270.966 54.0082 271.075 54.1296C271.36 54.4467 273.051 54.2629 274.126 53.7979C274.78 53.5154 275.113 53.2281 275.495 52.6172L276 51.8099L275.997 36.5521L275.994 21.2943L275.584 20.5774C274.893 19.366 274.196 19.0196 271.655 18.6238C270.432 18.4332 268.265 18.0963 266.838 17.8749C265.412 17.6535 263.161 17.3029 261.836 17.0957C260.512 16.8886 258.431 16.5684 257.213 16.3843C255.995 16.2001 254.931 15.9579 254.849 15.8463C254.45 15.3006 252.388 12.2658 251.639 11.1224C251.174 10.412 250.643 9.61276 250.458 9.34635C249.756 8.33062 248.137 5.90358 247.334 4.66406C246.334 3.11955 246.113 2.88108 245.213 2.38266L244.522 2H225.843H207.164L206.321 2.46613ZM259.52 25.0076C259.815 25.1407 260.291 25.5164 260.576 25.8422L261.095 26.4349L261.156 29.584C261.19 31.3162 261.165 32.9748 261.102 33.2698C260.917 34.1255 260.249 34.3301 257.851 34.265C255.141 34.1916 255.103 34.1599 255.034 31.8898L254.982 30.1745L240.862 30.0937C227.632 30.0182 226.722 29.9949 226.412 29.7251C226.146 29.4936 226.069 29.1038 226.017 27.7371C225.948 25.8766 226.026 25.4016 226.465 25.0191C226.725 24.7926 228.474 24.7656 242.869 24.7656C256.825 24.7656 259.055 24.7981 259.52 25.0076ZM192.456 38.7314C192.456 38.7755 192.157 39.1751 191.79 39.6193C189.439 42.4718 188.295 46.3757 188.738 50.0348C188.846 50.9224 188.984 51.9087 189.047 52.2269C189.151 52.7596 189.096 52.8537 188.353 53.412C187.323 54.187 185.779 54.8679 184.527 55.0996C183.946 55.2071 181.615 55.2812 178.816 55.2812H174.086L174.211 54.7565C174.28 54.4678 174.527 53.7232 174.76 53.1016C174.993 52.4799 175.451 51.2085 175.778 50.276C176.105 49.3436 176.524 48.1811 176.709 47.6927C176.894 47.2043 177.311 46.0418 177.635 45.1094C177.96 44.177 178.376 43.0145 178.56 42.526C178.745 42.0376 179.064 41.1658 179.269 40.5885C179.475 40.0113 179.731 39.3392 179.839 39.0951L180.034 38.651H186.245C189.661 38.651 192.456 38.6872 192.456 38.7314ZM208.579 38.9749C212.15 39.6401 214.961 41.493 216.365 44.108C216.685 44.7031 217.023 45.3175 217.116 45.4731C217.209 45.6289 217.376 46.3192 217.486 47.007C217.986 50.1146 216.899 53.0113 214.411 55.2007C213 56.4423 211.966 57.0171 209.963 57.6733C208.841 58.0409 208.38 58.0985 206.536 58.1011C204.712 58.1037 204.202 58.043 202.994 57.6802C200.108 56.8132 197.828 55.0885 196.464 52.7413C195.12 50.4283 195.054 46.8142 196.314 44.4992C197.901 41.5843 200.591 39.6994 204.172 38.992C206.186 38.5944 206.529 38.5931 208.579 38.9749ZM254.071 44.3817C249.499 45.2122 245.825 48.6308 245.212 52.6251C244.876 54.8161 245.199 56.592 246.268 58.4297C248.321 61.9616 252.053 64 256.464 64C261.324 64 265.494 61.4291 267.257 57.3452C267.718 56.2779 267.764 55.9755 267.756 54.0703C267.747 52.1696 267.697 51.8575 267.223 50.7656C266.398 48.8647 265.48 47.7329 263.71 46.4307C262.598 45.6128 260.916 44.8276 259.613 44.5184C258.182 44.1789 255.546 44.1138 254.071 44.3817ZM258.401 50.4023C261.93 51.9345 262.099 55.7963 258.718 57.6563C257.581 58.282 255.975 58.3488 254.663 57.8252C252.828 57.0933 251.86 55.7965 251.86 54.0703C251.86 52.3261 252.965 50.9067 254.811 50.2783C256.105 49.8382 257.188 49.8756 258.401 50.4023Z" fill="white"/>
<path d="M27.512 32.168L0.375999 29.288H27.96C27.7467 30.1413 27.5973 31.1013 27.512 32.168ZM29.688 23.144L28.728 25.96L2.168 23.144H29.688ZM27.512 35.432C27.5973 36.584 27.768 37.544 28.024 38.312L0.952 35.432H27.512ZM36.472 44.456L2.616 41.576H30.2C31.608 42.9413 33.6987 43.9013 36.472 44.456ZM34.488 17C33.5067 17.64 32.568 18.5147 31.672 19.624L6.968 17H34.488ZM1.528 47.72H25.464L24.504 50.536L1.528 47.72ZM0.44 53.928H23.416L22.456 56.744L0.44 53.928ZM28.216 45.736C31.8 46.7173 35.064 47.208 38.008 47.208C40.9947 47.208 43.4267 47.08 45.304 46.824L45.816 43.624L40.504 43.112C36.4507 42.728 33.5707 41.8107 31.864 40.36C30.2 38.9093 29.368 36.8613 29.368 34.216C29.368 33.064 29.496 31.784 29.752 30.376C30.7333 24.9147 32.5253 21.16 35.128 19.112C37.7307 17.064 41.72 16.04 47.096 16.04C52.5147 16.04 57.2933 16.5733 61.432 17.64L58.104 27.88C54.392 27.24 51.4053 26.92 49.144 26.92C46.9253 26.92 45.0053 27.0267 43.384 27.24L42.872 30.376L47.16 30.824C51.512 31.2933 54.6053 32.3387 56.44 33.96C58.2747 35.5387 59.192 37.672 59.192 40.36C59.192 43.0907 58.616 45.9067 57.464 48.808C56.824 50.3013 56.1413 51.56 55.416 52.584C54.7333 53.5653 53.8373 54.4187 52.728 55.144C51.6613 55.8267 50.68 56.36 49.784 56.744C48.888 57.0853 47.736 57.3413 46.328 57.512C44.3653 57.8107 41.9333 57.96 39.032 57.96C33.7413 57.96 28.9413 57.4053 24.632 56.296L28.216 45.736ZM96.4305 57L98.8625 42.856H89.7105L87.2785 57H75.1185L82.1585 17H94.3185L91.8225 31.144H100.975L103.471 17H115.631L108.591 57H96.4305ZM73.1985 56.808L46.0625 53.928H73.7105L73.1985 56.808ZM75.3745 44.456L48.2385 41.576H75.8865L75.3745 44.456ZM76.4625 38.312L49.3265 35.432H76.9745L76.4625 38.312ZM77.5505 32.168L50.4145 29.288H78.0625L77.5505 32.168ZM78.6385 26.024L51.5025 23.144H79.0865L78.6385 26.024ZM74.2865 50.6L47.1505 47.72H74.7985L74.2865 50.6ZM79.6625 19.88L52.5905 17H80.1745L79.6625 19.88ZM163.292 27.24H154.46L149.276 57H137.116L142.3 27.24H133.532L135.388 17H165.148L163.292 27.24ZM135.132 56.808L107.995 53.928H135.644L135.132 56.808ZM137.308 44.456L110.171 41.576H137.82L137.308 44.456ZM138.396 38.312L111.259 35.432H138.908L138.396 38.312ZM139.484 32.168L112.347 29.288H139.996L139.484 32.168ZM136.22 50.6L109.083 47.72H136.732L136.22 50.6ZM131.804 26.024L104.667 23.144H132.252L131.804 26.024ZM132.828 19.88L105.755 17H133.34L132.828 19.88Z" fill="white"/>
</g>
<defs>
<clipPath id="clip0_20_734">
<rect width="276" height="64" fill="white"/>
</clipPath>
</defs>
</svg>
