<svg width="171" height="170" viewBox="0 0 171 170" fill="none" xmlns="http://www.w3.org/2000/svg">
<path d="M107.575 44.3071L107.575 44.3073L107.586 44.3138C108.298 44.7258 108.925 45.2872 109.43 45.9658C109.934 46.6444 110.305 47.4258 110.519 48.2633C110.733 49.1009 110.785 49.9761 110.671 50.8359C110.558 51.6957 110.282 52.5211 109.861 53.2625L109.86 53.2624L109.856 53.2702L71.7039 123.271C71.7036 123.271 71.7033 123.272 71.703 123.272C71.1513 124.263 70.3683 125.082 69.4333 125.651C68.498 126.22 67.4416 126.52 66.3674 126.525L66.3571 126.525L66.347 126.526C65.288 126.574 64.2373 126.287 63.328 125.699L63.3213 125.695L63.3145 125.691C62.612 125.267 61.9937 124.7 61.4961 124.019C60.9986 123.338 60.6321 122.558 60.419 121.724C60.206 120.889 60.1509 120.018 60.2572 119.16C60.3634 118.302 60.6288 117.477 61.037 116.73L61.0374 116.73L99.1918 46.7257L99.1934 46.7227C99.5955 45.9728 100.133 45.3167 100.773 44.7912C101.413 44.2658 102.143 43.8812 102.921 43.6582C103.698 43.4352 104.509 43.3777 105.307 43.4888C106.106 43.5999 106.876 43.8776 107.575 44.3071ZM78.0537 67.1978L78.053 67.2169L78.0538 67.236C78.3097 73.5846 76.1795 79.7771 72.1377 84.456C68.1021 89.1277 62.4919 91.9087 56.5371 92.2021C50.5728 91.9084 44.9517 89.1308 40.8992 84.4621C36.8404 79.7862 34.6861 73.5936 34.9137 67.2337L34.9143 67.2169L34.9137 67.2001C34.7144 60.8591 36.8813 54.6951 40.9371 50.0433C44.9867 45.3988 50.5915 42.6367 56.5371 42.3428C62.473 42.6365 68.0669 45.4021 72.0994 50.0495C76.1382 54.7042 78.2812 60.868 78.0537 67.1978ZM56.4763 79.0396L56.5372 79.0471L56.5981 79.0396C59.2905 78.7087 61.7459 77.2742 63.4424 75.0544C65.1289 72.8476 65.9346 70.037 65.6961 67.2184C65.9642 64.392 65.1691 61.5634 63.4762 59.3483C61.7732 57.1199 59.2986 55.6925 56.5924 55.3914L56.5371 55.3852L56.4818 55.3914C53.7689 55.6932 51.2852 57.1155 49.5652 59.3387C47.8541 61.5504 47.0333 64.3795 47.2717 67.2183C47.0623 70.0493 47.8933 72.8608 49.5981 75.0643C51.3118 77.2793 53.7767 78.7086 56.4763 79.0396ZM92.9467 102.691L92.9475 102.672L92.9468 102.653C92.7192 96.3232 94.8622 90.1593 98.901 85.5047C102.934 80.8572 108.527 78.0917 114.463 77.7979C120.409 78.0918 126.014 80.854 130.063 85.4985C134.119 90.1502 136.286 96.3142 136.087 102.655L136.086 102.672L136.087 102.689C136.314 109.049 134.16 115.241 130.101 119.917C126.049 124.586 120.428 127.363 114.463 127.657C108.509 127.364 102.898 124.583 98.8628 119.911C94.821 115.232 92.6907 109.04 92.9467 102.691ZM114.402 114.495L114.463 114.502L114.524 114.495C117.224 114.164 119.689 112.734 121.402 110.519C123.107 108.316 123.938 105.504 123.729 102.673C123.967 99.8346 123.146 97.0055 121.435 94.7939C119.715 92.5706 117.232 91.1484 114.519 90.8465L114.46 90.84L114.402 90.8472C111.71 91.178 109.255 92.6125 107.558 94.8324C105.871 97.0398 105.065 99.8515 105.305 102.671C105.065 105.49 105.871 108.302 107.558 110.51C109.255 112.729 111.71 114.164 114.402 114.495Z" fill="#16872E" stroke="#16872E"/>
<path d="M85.4833 0.543317L85.5 0.543873L85.5167 0.543317C107.337 -0.184927 128.544 8.29421 144.48 24.1288C160.414 39.9609 169.775 61.8523 170.5 85C169.775 108.148 160.414 130.039 144.48 145.871C128.544 161.706 107.337 170.185 85.5167 169.457L85.5 169.456L85.4833 169.457C63.6627 170.185 42.4555 161.706 26.5196 145.871C10.5862 130.039 1.22546 108.148 0.500245 85C1.22546 61.8523 10.5862 39.9609 26.5196 24.1288C42.4555 8.29421 63.6627 -0.184927 85.4833 0.543317ZM12.8597 84.9808L12.859 85L12.8597 85.0192C13.6155 104.654 21.6774 123.179 35.2909 136.539C48.9007 149.895 66.9522 157.002 85.5 156.297C104.048 157.002 122.099 149.895 135.709 136.539C149.323 123.179 157.385 104.654 158.14 85.0192L158.141 85L158.14 84.9808C157.385 65.3458 149.323 46.8211 135.709 33.4612C122.099 20.1049 104.048 12.9977 85.5 13.7026C66.9522 12.9977 48.9007 20.1049 35.2909 33.4612C21.6774 46.8211 13.6155 65.3458 12.8597 84.9808Z" fill="#16872E" stroke="#16872E"/>
</svg>
