<svg width="170" height="170" viewBox="0 0 170 170" fill="none" xmlns="http://www.w3.org/2000/svg">
<path fill-rule="evenodd" clip-rule="evenodd" d="M6.61183 6.71882C2.975 10.414 0 13.7004 0 14.0216C0 14.3428 2.84718 19.5543 6.32634 25.6029L12.6527 36.5996L18.4424 38.0439L24.2328 39.4889L42.4734 57.7209L60.714 75.9529L62.6158 73.9674L64.5182 71.9819L45.7014 53.166L26.8853 34.3494L21.4693 32.9096L16.0533 31.4691L11.2349 23.0763L6.41653 14.6828L10.5945 10.5049L14.7725 6.32692L23.2413 11.1122L31.7102 15.8968L32.8158 20.4387C33.4238 22.9368 34.2991 25.7106 34.7611 26.6028C35.2231 27.4949 43.788 36.39 53.7933 46.3699L71.9859 64.5143L73.9695 62.6138L75.9537 60.7134L57.8045 42.5223L39.6554 24.3318L38.2649 18.8166C37.4999 15.7832 36.5734 12.9387 36.2061 12.4962C35.2283 11.3179 15.2591 0 14.158 0C13.6441 0 10.248 3.02363 6.61183 6.71882ZM127.897 0.984951C112.369 5.34132 101.995 19.6484 102.61 35.8605L102.801 40.9144L72.0813 71.6393L41.3613 102.364L33.8203 102.67C25.3002 103.017 21.4972 104.157 15.1534 108.264C7.36386 113.308 1.33145 123.385 0.338053 133.014C-1.25164 148.431 9.08916 164.146 23.8162 168.695C28.826 170.242 38.1767 170.445 43.1489 169.115C50.819 167.063 57.3523 162.396 62.1201 155.563C66.6355 149.092 67.7119 145.553 67.7625 137.018L67.8053 129.667L75.2672 122.277L82.729 114.886L86.3165 118.435C88.2897 120.387 90.318 121.983 90.8235 121.983C91.3296 121.983 92.8492 121.217 94.2014 120.28C96.5496 118.652 96.7319 118.624 98.2911 119.646C100.358 121 100.361 122.661 98.3015 125.11C97.4094 126.17 96.6794 127.448 96.6794 127.95C96.6794 128.452 105.366 137.494 115.983 148.041C133.876 165.818 135.57 167.325 139.179 168.67C144.659 170.713 153.263 170.361 157.996 167.9C162.342 165.642 166.315 161.412 168.417 156.806C170.006 153.323 170.122 152.499 169.874 146.425C169.659 141.141 169.304 139.245 168.096 136.907C166.252 133.342 130.835 97.4563 128.609 96.8977C127.571 96.6369 126.622 96.9723 125.551 97.978C123.818 99.606 120.839 99.9083 119.975 98.5438C119.02 97.0372 119.325 94.9914 120.687 93.7586C122.865 91.788 122.301 89.7766 118.439 85.7278L114.894 82.0112L122.171 74.7551L129.448 67.499L133.725 67.8981C145.753 69.0212 158.219 62.9954 164.817 52.8688C168.7 46.9091 170 42.1894 170 34.049C170 25.9409 169.419 24.0074 166.984 24.0074C165.603 24.0074 163.306 25.9182 156.092 33.0711L146.95 42.1356L140.014 39.8023L133.079 37.4697L131.113 32.0369C127.719 22.6578 127.083 24.4428 137.557 13.9502C145.682 5.81108 146.766 4.4777 146.41 3.05802C146.186 2.16845 145.49 1.22827 144.863 0.96873C142.463 -0.025305 131.459 -0.0142749 127.897 0.984951ZM130.247 13.4733C124.621 19.1144 122.634 21.5275 122.634 22.7188C122.634 24.8113 127.734 40.2539 128.851 41.5432C130.142 43.0329 146.744 48.2925 148.648 47.8143C149.519 47.5963 153.551 44.0522 157.609 39.9398L164.986 32.4619L164.541 36.815C163.435 47.6047 157.157 56.0508 147.129 60.241C143.54 61.7411 142.151 61.9429 135.081 61.9948L127.089 62.0532L94.5901 94.5521L62.0909 127.05L62.0286 135.419C61.9663 143.728 61.9481 143.822 59.5305 148.713C54.0626 159.778 43.0236 165.962 30.9627 164.717C23.0188 163.896 14.2385 158.418 9.90218 151.575C4.81126 143.541 4.36744 132.148 8.79977 123.252C13.914 112.986 26.6647 106.554 38.2364 108.402L42.4299 109.072L75.761 75.7855L109.091 42.4996L108.649 39.2553C107.7 32.2997 108.471 27.1958 111.411 20.9863C115.252 12.8731 125.928 5.9175 134.627 5.86105L137.862 5.83963L130.247 13.4733ZM83.1826 83.2479L51.8753 114.559L54.0172 116.636L56.159 118.711L87.4663 87.3992L118.774 56.0877L116.632 54.0114L114.49 51.9358L83.1826 83.2479ZM113.518 88.5353C115.625 90.709 115.657 90.8212 114.619 92.4057C112.406 95.783 113.708 101.156 117.371 103.764C119.532 105.304 124.037 105.549 126.366 104.256C127.749 103.488 128.73 104.346 144.364 120.013L160.899 136.583L148.745 148.751L136.592 160.919L120.219 144.534L103.846 128.148L104.928 125.158C105.95 122.338 105.944 121.996 104.839 119.102C104.072 117.094 102.964 115.605 101.633 114.794C99.2028 113.312 94.2319 113.142 92.4235 114.481C91.2764 115.33 90.9461 115.201 88.7186 113.039L86.2731 110.666L98.4449 98.4815C105.14 91.7796 110.782 86.2968 110.983 86.2968C111.184 86.2968 112.325 87.3045 113.518 88.5353ZM116.606 116.651L114.877 118.455L128.998 132.566L143.119 146.676L145.019 144.693L146.918 142.711L132.997 128.778C125.341 121.116 118.909 114.846 118.705 114.846C118.501 114.846 117.556 115.658 116.606 116.651ZM19.1782 127.761C14.6836 135.32 14.2586 136.318 14.96 137.672C15.3889 138.501 17.619 142.317 19.9153 146.153L24.0907 153.128H34.0058C42.646 153.128 44.0462 152.982 44.8936 151.993C46.8058 149.76 53.855 137.474 53.855 136.374C53.855 135.758 51.7377 131.756 49.1508 127.483L44.4466 119.712L34.3114 119.534L24.1757 119.356L19.1782 127.761ZM44.7794 130.757L48.1197 136.287L44.6464 141.95L41.1737 147.613L34.2693 147.797L27.3648 147.98L24.0174 142.438C22.1766 139.391 20.764 136.526 20.8789 136.073C20.9937 135.62 22.4017 132.998 24.0076 130.247L26.9275 125.244L34.1836 125.235L41.4398 125.228L44.7794 130.757ZM164.744 147.008C164.836 150.759 163.217 155.665 161.003 158.341C159.96 159.602 157.543 161.498 155.632 162.554C152.692 164.178 151.439 164.475 147.506 164.478C144.949 164.481 142.627 164.253 142.346 163.973C142.066 163.692 146.786 158.505 152.836 152.446C164.825 140.437 164.586 140.546 164.744 147.008Z" fill="#16872E"/>
</svg>
