<svg width="170" height="170" viewBox="0 0 170 170" fill="none" xmlns="http://www.w3.org/2000/svg">
<path fill-rule="evenodd" clip-rule="evenodd" d="M120.219 1.28947C118.158 2.54615 117.866 3.07908 117.062 7.0614C116.703 8.84192 116.116 9.43975 113.714 10.4692C110.056 12.0362 110.144 12.0414 107.275 10.0947C103.285 7.38855 101.583 7.83254 96.5101 12.9041C91.4366 17.975 90.9925 19.6763 93.6997 23.6645C95.6555 26.5459 95.649 26.3946 93.9951 30.1316C92.8016 32.8293 92.4009 33.1746 90.0249 33.5544C88.5716 33.7868 86.6125 34.639 85.6709 35.4485C84.0436 36.848 83.9592 37.2264 83.9592 43.1288C83.9592 48.9105 84.0722 49.4499 85.6079 50.9844C86.5859 51.9626 88.406 52.8285 90.0833 53.1148C92.7561 53.5711 92.9802 53.7808 94.1808 56.9394L95.4516 60.281L93.7639 62.7639C91.0334 66.7806 91.4301 68.3307 96.5302 73.5619C101.631 78.7931 103.356 79.2293 107.669 76.3765L110.138 74.7427L113.459 76.1447C116.511 77.4339 116.814 77.7591 117.199 80.1673C117.453 81.7557 118.323 83.4921 119.408 84.5768C121.097 86.2651 121.528 86.3657 127.056 86.3657C134.154 86.3657 135.958 85.2784 136.754 80.525C137.206 77.8234 137.483 77.491 140.459 76.0785C142.937 74.9023 143.901 74.7193 144.662 75.2801C145.205 75.68 146.785 76.5563 148.172 77.2275C151.553 78.8619 153.205 78.2141 157.995 73.375C161.302 70.0346 161.808 69.1992 161.75 67.172C161.711 65.8024 161.01 63.883 160.062 62.5516L158.441 60.2739L159.892 56.9874C161.235 53.9463 161.579 53.6412 164.508 52.898C169.278 51.6874 170 50.3983 170 43.0964C170 37.3361 169.899 36.8778 168.315 35.4095C167.356 34.5222 165.425 33.668 163.838 33.4297C161.172 33.0305 160.989 32.8566 159.785 29.5922C158.677 26.5829 158.638 26.0259 159.462 24.9497C159.977 24.2766 160.809 22.7771 161.312 21.6165C162.593 18.6559 161.417 16.1503 156.733 11.872C152.365 7.88123 150.259 7.53006 146.401 10.1505L143.929 11.8291L140.406 10.3998C137.305 9.14181 136.882 8.74974 136.882 7.1289C136.882 4.42534 135.574 2.00933 133.541 0.958417C130.792 -0.462495 122.767 -0.263217 120.219 1.28947ZM130.071 9.8078C130.693 13.4941 132.491 15.115 138.742 17.6238L144.172 19.8042L147.426 17.9879L150.679 16.1724L152.511 17.9269L154.344 19.6808L152.756 22.0164C150.68 25.0704 150.75 26.505 153.279 32.7112C155.541 38.2637 157.609 40.2714 161.071 40.276C162.749 40.2786 162.857 40.4512 162.857 43.1424C162.857 45.9453 162.805 46.0154 160.422 46.4205C156.93 47.0144 155.431 48.4795 153.425 53.2609C150.835 59.4352 150.718 61.5117 152.79 64.5587L154.513 67.0941L152.582 69.024L150.652 70.9538L148.323 69.1784C145.508 67.0325 143.202 67.1545 136.882 69.7841C131.921 71.8489 130.658 73.1173 130.064 76.6309C129.63 79.1995 129.597 79.2254 126.76 79.2254C123.956 79.2254 123.895 79.1807 123.895 77.0983C123.895 73.8917 122.299 72.2131 116.925 69.7646C111.136 67.1272 108.768 66.9942 105.626 69.1285L103.289 70.7156L101.458 68.8033L99.6251 66.8916L101.182 64.7865C103.223 62.0271 103.145 59.1938 100.882 53.91C98.5192 48.3899 97.0971 46.9203 93.6113 46.3978C90.8204 45.9797 90.7775 45.9349 90.7775 43.43C90.7775 41.9507 91.1171 40.7907 91.5892 40.657C92.036 40.5304 93.6685 40.0819 95.2172 39.6606C97.8971 38.9316 98.1439 38.6525 100.313 33.9068C103.436 27.0704 103.599 25.5742 101.547 22.5616C99.4829 19.5322 99.4823 19.4465 101.519 17.5336C103.005 16.1386 103.314 16.0744 104.604 16.8909C108.375 19.2777 109.803 19.7191 111.503 19.022C112.425 18.6436 115.162 17.544 117.584 16.5774C122.183 14.743 123.895 12.847 123.895 9.5858C123.895 7.50279 124.345 7.17369 127.193 7.17369C129.53 7.17369 129.643 7.27625 130.071 9.8078ZM120.937 29.4864C117.097 31.2734 113.378 35.3271 112.311 38.8881C109.389 48.6372 116.838 58.4804 127.107 58.4395C135.677 58.4057 142.17 51.8594 142.17 43.2534C142.17 36.9272 139.164 32.2587 133.311 29.4922C129.13 27.5163 125.173 27.5144 120.937 29.4864ZM133.135 37.6425C136.385 41.2678 136.305 45.9486 132.936 49.3162C126.135 56.115 115.186 47.6564 119.641 39.0446C122.166 34.1639 129.348 33.4181 133.135 37.6425ZM35.5815 59.3457C28.7223 62.1998 27.0761 63.1858 26.1371 65.0001C25.017 67.1655 24.9345 70.1599 25.9001 73.6346L26.6008 76.1584L22.5838 80.2095L18.5668 84.2606L14.9135 83.3071C10.5758 82.175 7.07569 82.9053 5.5289 85.2655C3.90938 87.736 0.530739 96.1031 0.122938 98.6541C-0.193303 100.631 0.0450136 101.408 1.49505 103.131C2.46065 104.277 4.49771 105.946 6.02307 106.84L8.79585 108.464L8.71403 113.997L8.63221 119.53L5.5315 121.459C1.67622 123.858 -0.306293 126.841 0.107353 129.621C0.274239 130.742 1.50608 134.208 2.84572 137.324C6.23476 145.21 8.67183 146.591 15.5265 144.511L18.524 143.602L22.5981 147.711L26.6716 151.819L25.9313 154.756C24.0754 162.125 25.5514 164.53 34.0587 167.992C42.3472 171.365 45.3622 170.666 48.9558 164.537L50.6403 161.663H56.3612H62.0821L63.7665 164.537C67.3419 170.634 70.1082 171.296 78.424 168.043C86.8618 164.741 88.3723 162.532 86.9385 155.593L86.1404 151.729L90.1275 147.708L94.1146 143.686L98.2842 144.684C104.176 146.093 106.154 145.103 108.852 139.396C112.264 132.178 113.134 128.848 112.199 126.592C111.341 124.523 109.11 122.442 105.843 120.665L103.862 119.587L103.976 114.015L104.089 108.444L107.336 106.33C109.338 105.027 111.044 103.273 111.786 101.756C112.927 99.4201 112.933 99.1273 111.907 95.9908C111.312 94.1739 109.96 90.8563 108.903 88.6194C107.39 85.4174 106.472 84.3106 104.591 83.4181C102.38 82.3691 101.893 82.3594 98.0303 83.2831L93.8574 84.2814L89.9976 80.338L86.1378 76.3947L86.932 72.4007C88.308 65.4811 87.0216 63.5409 78.7454 60.0512C70.4134 56.5382 67.3776 57.2107 63.7665 63.3695L62.0821 66.2431H56.3268H50.5714L48.8578 63.3195C45.4733 57.547 42.2342 56.5772 35.5815 59.3457ZM43.6817 69.181C44.944 71.1544 46.7252 73.053 47.6402 73.4003C48.5545 73.7482 52.5708 74.0312 56.5657 74.0299C65.1458 74.0273 66.8848 73.2912 69.3692 68.6098C70.2491 66.9513 71.2621 65.5934 71.6199 65.5921C71.9777 65.5914 74.0629 66.3509 76.2532 67.2798L80.2357 68.9701L79.3454 72.3124C77.7285 78.3835 77.872 78.7704 84.1215 85.1428C90.6359 91.7852 91.9847 92.3856 97.5277 91.1114C99.6329 90.6278 101.43 90.311 101.521 90.4084C101.863 90.7726 105.054 98.9222 104.9 99.0377C104.812 99.1039 103.346 99.9614 101.643 100.944C96.8426 103.714 96.6218 104.279 96.6218 113.815C96.6218 118.464 96.9276 122.723 97.3127 123.443C97.6926 124.152 99.5855 125.744 101.519 126.981L105.036 129.229L103.682 132.626C102.938 134.494 102.173 136.414 101.981 136.893C101.749 137.473 101.071 137.622 99.9394 137.341C99.0076 137.11 96.5646 136.756 94.5107 136.556L90.7762 136.191L84.9702 142.012C81.6728 145.318 78.9675 148.614 78.7097 149.64C78.4604 150.635 78.5896 152.892 78.9974 154.658C79.4045 156.423 79.7383 158.153 79.7383 158.502C79.7383 159.172 73.1245 162.321 71.7648 162.299C71.329 162.292 70.0952 160.804 69.0238 158.992C66.3322 154.44 65.1062 153.952 56.3612 153.952C47.4714 153.952 46.0584 154.536 43.346 159.341L41.381 162.821L37.1445 161.035C34.8139 160.052 32.8866 159.053 32.8607 158.815C32.8353 158.576 33.1763 156.675 33.6191 154.59C34.062 152.504 34.2211 150.158 33.973 149.377C33.7243 148.594 30.8723 145.307 27.6346 142.07L21.7474 136.186L17.7876 136.555C15.6096 136.758 13.2109 137.11 12.457 137.337C11.2543 137.699 10.8706 137.214 9.34327 133.399C8.38481 131.007 7.68674 128.981 7.79194 128.898C7.89713 128.816 9.37639 127.945 11.079 126.963C15.8941 124.184 16.1006 123.647 16.1006 113.904C16.1006 104.329 15.9155 103.885 10.581 100.682C9.15235 99.8245 7.89713 99.063 7.79194 98.9897C7.45102 98.7534 11.0303 90.2597 11.4615 90.2838C11.6914 90.2961 13.5914 90.7154 15.683 91.2146C18.387 91.8605 19.9825 91.9358 21.2026 91.4755C23.5747 90.5817 33.4808 80.3835 34.0048 78.2953C34.2406 77.3579 33.999 74.8679 33.4678 72.7616L32.5029 68.9318L36.1529 67.3058C38.1601 66.4113 40.1589 65.6602 40.5939 65.6369C41.0297 65.6135 42.4187 67.2084 43.6817 69.181ZM48.5331 89.2543C38.8316 92.8276 32.8061 99.9329 30.9535 109.986C27.2417 130.121 48.7597 146.069 67.5783 137.132C77.5974 132.373 83.7267 120.607 81.7565 109.916C79.95 100.118 73.481 92.5265 64.3802 89.525C60.071 88.104 52.0306 87.9664 48.5331 89.2543ZM64.5847 97.7486C76.5116 103.582 78.1052 120.287 67.5056 128.368C60.1678 133.963 50.261 133.41 43.4791 127.028C40.3082 124.043 38.6777 120.415 38.3342 115.576C37.9679 110.42 38.8595 106.887 41.4186 103.355C46.7136 96.0492 56.3436 93.7182 64.5847 97.7486Z" fill="#16872E"/>
</svg>
