<svg width="205" height="170" viewBox="0 0 205 170" fill="none" xmlns="http://www.w3.org/2000/svg">
<path fill-rule="evenodd" clip-rule="evenodd" d="M17.8616 6.07846V12.1569H23.8804H29.8993V31.516V50.875L25.5917 52.2841C20.0083 54.1104 12.6292 57.7343 7.83025 61.0065C2.89042 64.375 2.07548 65.0933 2.4639 65.7373C2.98794 66.6052 9.52998 74.5623 9.71978 74.5623C9.81766 74.5623 10.9219 73.7786 12.1742 72.8212C21.8432 65.4265 35.4276 60.7846 47.3985 60.7846C72.9072 60.7846 95.2182 76.3337 104.31 100.447C107.295 108.365 108.144 114.783 108.144 129.45V139.793L120.829 139.9L133.514 140.007L134.276 143.039C137.336 155.209 147.67 165.61 160.106 169.037C164.708 170.305 173.56 170.305 178.162 169.037C188.216 166.267 196.936 159.039 201.452 149.733C204.193 144.086 204.961 140.664 204.999 133.929C205.036 127.373 204.256 123.665 201.673 118.125C200.195 114.952 196.326 109.369 194.253 107.417L193.209 106.434L193.203 94.652C193.195 81.2665 192.904 79.0276 190.543 74.1571C188.512 69.9694 184.115 65.5282 179.968 63.4777C175.602 61.319 172.558 60.7999 164.219 60.7914L157.097 60.7846V44.9644C157.097 29.9089 157.136 29.0672 157.904 27.5451C158.691 25.9874 161.07 24.3138 162.498 24.3138C163.027 24.3138 163.115 23.4345 163.115 18.1973V12.0807L161.009 12.3697C153.111 13.4516 146.932 19.3113 145.469 27.1063C145.234 28.3552 145.059 36.0185 145.059 45.0355V60.7846H131.833H118.607L118.191 59.2648C117.962 58.4293 114.737 47.5334 111.023 35.0523L104.272 12.3595L109.218 12.2461L114.163 12.1326V6.06631V0H66.0121H17.8616V6.07846ZM92.0774 13.6765C92.3061 14.5125 95.5316 25.4079 99.2447 37.889L105.995 60.5821L96.9865 60.6908L87.9771 60.7999L84.9096 58.9838C73.4075 52.1738 61.629 48.8804 48.6582 48.8472L41.9376 48.8302L41.9373 30.4935L41.9367 12.1569H66.7988H91.6613L92.0774 13.6765ZM40.9338 73.5111C32.1743 74.9964 25.6375 77.8147 18.6914 83.1005C9.61423 90.0082 3.23752 100.364 0.743322 112.249C-0.247774 116.972 -0.247774 126.166 0.743322 130.89C4.87303 150.567 19.2419 165.079 38.7267 169.249C43.4038 170.25 52.5074 170.25 57.1845 169.249C70.006 166.505 80.9313 159.13 87.8615 148.542C93.5391 139.866 95.8907 131.968 95.8907 121.569C95.8907 112.958 94.3577 106.496 90.5843 99.1987C83.8421 86.1588 71.7744 76.98 57.3851 73.9472C53.0741 73.0382 44.9872 72.824 40.9338 73.5111ZM174.009 74.0149C176.394 75.1281 179.007 77.7671 180.109 80.1751C180.89 81.8816 180.983 82.8744 181.101 90.725C181.224 98.9717 181.195 99.3772 180.499 99.106C176.467 97.5372 175.816 97.5049 145.452 97.361L115.951 97.2213L114.997 94.7056C112.652 88.519 108.075 80.6704 103.778 75.4655L101.68 72.9243L136.912 73.0343C171.999 73.1436 172.151 73.1476 174.009 74.0149ZM56.9839 86.2965C69.3341 89.5526 79.5044 99.809 82.9196 112.451C84.1751 117.099 84.1751 126.039 82.9196 130.687C80.1772 140.839 73.0203 149.646 63.8053 154.208C58.0985 157.032 54.8382 157.764 47.9557 157.764C41.0729 157.764 37.8126 157.032 32.1062 154.208C22.8909 149.646 15.7342 140.839 12.9916 130.687C11.7361 126.039 11.7361 117.099 12.9916 112.451C16.6743 98.8182 27.846 88.3136 41.4289 85.7123C45.6215 84.9096 52.7352 85.1765 56.9839 86.2965ZM44.3877 103.772C35.2736 105.58 28.7118 115.055 30.2178 124.235C31.5223 132.184 37.4448 138.165 45.3163 139.483C56.9188 141.424 67.6157 130.621 65.6934 118.903C63.9989 108.578 54.4284 101.781 44.3877 103.772ZM140.687 111.434C137.705 115.243 135.555 119.71 134.248 124.811L133.573 127.445L126.936 127.556L120.298 127.667L120.04 120.667C119.898 116.817 119.668 112.709 119.529 111.54L119.277 109.412H130.773H142.269L140.687 111.434ZM174.15 110.022C184.978 112.318 193.195 122.545 193.195 133.726C193.195 146.838 182.117 158.026 169.134 158.026C158.063 158.026 147.936 149.727 145.662 138.791C143.948 130.543 146.285 122.689 152.245 116.67C158.209 110.646 165.978 108.289 174.15 110.022ZM50.7747 116.306C52.5551 117.224 53.9744 119.558 53.9744 121.569C53.9744 123.58 52.5551 125.914 50.7747 126.832C49.9042 127.28 48.6352 127.648 47.9557 127.648C44.9025 127.648 41.9367 124.652 41.9367 121.569C41.9367 119.62 43.3569 117.229 45.0509 116.326C46.987 115.294 48.7979 115.288 50.7747 116.306ZM166.229 128.483C164.535 129.386 163.115 131.777 163.115 133.726C163.115 134.412 163.479 135.694 163.923 136.573C164.831 138.371 167.143 139.805 169.134 139.805C171.125 139.805 173.437 138.371 174.345 136.573C174.789 135.694 175.153 134.412 175.153 133.726C175.153 131.715 173.734 129.381 171.953 128.463C169.977 127.445 168.166 127.451 166.229 128.483Z" fill="#16872E"/>
</svg>
